<svg xmlns="http://www.w3.org/2000/svg" width="24" height="24" viewBox="0 0 24 24">
    <defs>
        <filter id="9zw7hlyloa">
            <feColorMatrix in="SourceGraphic" values="0 0 0 0 1.000000 0 0 0 0 1.000000 0 0 0 0 1.000000 0 0 0 1.000000 0"/>
        </filter>
    </defs>
    <g fill="none" fill-rule="evenodd">
        <g>
            <g>
                <g filter="url(#9zw7hlyloa)" transform="translate(-413 -362) translate(88 350) translate(309)">
                    <g fill="#374047" fill-rule="nonzero">
                        <path d="M12 1C5.925 1 1 5.925 1 12s4.925 11 11 11 11-4.925 11-11S18.075 1 12 1zm0 2c4.97 0 9 4.03 9 9s-4.03 9-9 9-9-4.03-9-9 4.03-9 9-9z" transform="translate(16 12)"/>
                        <path d="M16.243 6.343l1.414 1.414L13.414 12l4.243 4.243-1.414 1.414L12 13.414l-4.243 4.243-1.414-1.414L10.586 12 6.343 7.757l1.414-1.414L12 10.586l4.243-4.243z" transform="translate(16 12)"/>
                    </g>
                </g>
            </g>
        </g>
    </g>
</svg>
