<svg xmlns="http://www.w3.org/2000/svg" width="24" height="24" viewBox="0 0 24 24">
    <defs>
        <filter id="zd4rs1o11a">
            <feColorMatrix in="SourceGraphic" values="0 0 0 0 1.000000 0 0 0 0 1.000000 0 0 0 0 1.000000 0 0 0 1.000000 0"/>
        </filter>
    </defs>
    <g fill="none" fill-rule="evenodd">
        <g>
            <g>
                <g filter="url(#zd4rs1o11a)" transform="translate(-413 -205) translate(88 193) translate(309)">
                    <g>
                        <path fill="#374047" fill-rule="nonzero" d="M12 1c6.075 0 11 4.925 11 11s-4.925 11-11 11S1 18.075 1 12 5.925 1 12 1zm0 2c-4.97 0-9 4.03-9 9s4.03 9 9 9 9-4.03 9-9-4.03-9-9-9zm1 13v2h-2v-2h2zm0-11v9h-2V5h2z" transform="translate(16 12) rotate(-180 12 12)"/>
                    </g>
                </g>
            </g>
        </g>
    </g>
</svg>
