<svg xmlns="http://www.w3.org/2000/svg" width="24" height="24" viewBox="0 0 24 24">
    <defs>
        <filter id="w3l57sj0oa">
            <feColorMatrix in="SourceGraphic" values="0 0 0 0 1.000000 0 0 0 0 1.000000 0 0 0 0 1.000000 0 0 0 1.000000 0"/>
        </filter>
    </defs>
    <g fill="none" fill-rule="evenodd">
        <g>
            <g>
                <g filter="url(#w3l57sj0oa)" transform="translate(-413 -72) translate(88 60) translate(309)">
                    <g>
                        <path fill="#374047" fill-rule="nonzero" d="M18.155 2.466l1.69 1.068-12 19-1.69-1.068.926-1.467L5.889 20C2.724 20 .124 17.614.004 14.6L0 14.386c0-2.713 2.015-4.974 4.713-5.5l.233-.042.109-.015.022-.098c.74-3.146 3.588-5.494 7.009-5.713l.271-.013.254-.004c1.627 0 3.139.48 4.386 1.299l1.158-1.833zm1.516 4.898c.426.91.662 1.92.662 2.982 0 .154-.005.308-.015.46l-.018.229-.017.135.116.024c1.917.429 3.39 1.988 3.58 3.917l.016.216.005.211c0 2.407-1.983 4.348-4.448 4.457l-.219.005h-7.585l1.254-2h6.331c1.428 0 2.576-1.031 2.662-2.307l.005-.155c0-1.292-1.089-2.371-2.466-2.456l-.173-.005-.154.002-1.514.136.427-1.417c.141-.468.213-.955.213-1.452 0-.257-.02-.51-.057-.757l1.395-2.225zM12.611 5C9.712 5 7.306 7.02 6.94 9.644l-.026.22-.085.887-1.137.023C3.617 10.87 2 12.469 2 14.384c0 1.92 1.619 3.51 3.681 3.61L5.89 18l2.455-.001L15.929 5.99c-.934-.623-2.078-.99-3.318-.99z" transform="translate(16 12)"/>
                    </g>
                </g>
            </g>
        </g>
    </g>
</svg>
